<svg xmlns="http://www.w3.org/2000/svg" class="h-full w-full p-0 md:p-8" fill="none" width="1080" height="1080" viewBox="0 0 1080 1080" stroke="white" stroke-width="2"><path d="M 565.480 84.635 C 546.241 118.535, 529.700 147.788, 528.722 149.643 L 526.945 153.014 592.563 152.757 L 658.180 152.500 694.215 89 C 714.035 54.075, 730.467 24.938, 730.732 24.250 C 731.115 23.258, 717.729 23, 665.837 23 L 600.459 23 565.480 84.635 M 226 444 L 226 733 291.500 733 L 357 733 357 444 L 357 155 291.500 155 L 226 155 226 444 M 374 452.611 C 374 452.947, 453.054 588.172, 549.675 753.111 L 725.350 1053 790.758 1053 C 829.444 1053, 856.030 1052.630, 855.833 1052.094 C 855.650 1051.595, 776.525 916.374, 680 751.603 L 504.500 452.019 439.250 452.009 C 403.363 452.004, 374 452.275, 374 452.611" stroke="none" fill="#fffcfc" fill-rule="evenodd"></path></svg>